<?xml version="1.0" encoding="utf-8"?>
<!-- Generator: Adobe Illustrator 20.1.0, SVG Export Plug-In . SVG Version: 6.00 Build 0)  -->
<svg version="1.1" id="Layer_1" xmlns="http://www.w3.org/2000/svg" xmlns:xlink="http://www.w3.org/1999/xlink" x="0px" y="0px"
	 viewBox="0 0 600 600" style="enable-background:new 0 0 600 600;" xml:space="preserve">
<style type="text/css">
	.st0{clip-path:url(#SVGID_2_);}
	.st1{clip-path:url(#SVGID_4_);}
</style>
<g>
	<defs>
		<path id="SVGID_1_" d="M384.9,307.7h-50.1v182.5h-74.4V307.7H225v-64.4h35.3v-41.7c0-29.9,13.9-76.5,75.1-76.5l55.1,0.2v62.6h-40
			c-6.5,0-15.8,3.3-15.8,17.5v38h56.7L384.9,307.7z M300,0C134.3,0,0,134.4,0,300c0,165.7,134.3,300,300,300s300-134.3,300-300
			C600,134.4,465.7,0,300,0z"/>
	</defs>
	<clipPath id="SVGID_2_">
		<use xlink:href="#SVGID_1_"  style="overflow:visible;"/>
	</clipPath>
	<g class="st0">
		<defs>
			<rect id="SVGID_3_" x="-28200" y="-500" width="32000" height="1600"/>
		</defs>
		<clipPath id="SVGID_4_">
			<use xlink:href="#SVGID_3_"  style="overflow:visible;"/>
		</clipPath>
		<rect x="-125" y="-125" class="st1" width="850" height="850"/>
	</g>
</g>
</svg>
