<?xml version="1.0" encoding="utf-8"?>
<!-- Generator: Adobe Illustrator 20.1.0, SVG Export Plug-In . SVG Version: 6.00 Build 0)  -->
<svg version="1.1" id="Layer_1" xmlns="http://www.w3.org/2000/svg" xmlns:xlink="http://www.w3.org/1999/xlink" x="0px" y="0px"
	 viewBox="0 0 600 600" style="enable-background:new 0 0 600 600;" xml:space="preserve">
<style type="text/css">
	.st0{clip-path:url(#SVGID_2_);}
	.st1{clip-path:url(#SVGID_4_);}
</style>
<g>
	<defs>
		<path id="SVGID_1_" d="M600,300C600,134.4,465.7,0,300,0C134.4,0,0,134.4,0,300c0,165.6,134.4,300,300,300
			C465.7,600,600,465.7,600,300z M476,435.4c0,22.5-18.2,40.6-40.6,40.6H164.6c-22.4,0-40.6-18.2-40.6-40.6V164.6
			c0-22.4,18.2-40.6,40.6-40.6h270.8c22.4,0,40.6,18.2,40.6,40.6V435.4z M435.4,421.9v-149h-30.7c2.2,8.6,3.5,17.7,3.5,27.1
			c0,59.8-48.5,108.3-108.3,108.3c-59.8,0-108.3-48.5-108.3-108.3c0-9.4,1.3-18.5,3.6-27.1h-30.7v149c0,7.5,6,13.5,13.5,13.5h243.7
			C429.4,435.4,435.4,429.3,435.4,421.9z M435.4,218.8v-40.6c0-7.5-6.1-13.5-13.6-13.5h-40.6c-7.5,0-13.5,6-13.5,13.5v40.6
			c0,7.5,6,13.5,13.5,13.5h40.6C429.4,232.3,435.4,226.3,435.4,218.8z M367.7,300c0-37.4-30.3-67.7-67.7-67.7
			c-37.4,0-67.7,30.3-67.7,67.7c0,37.3,30.3,67.7,67.7,67.7C337.4,367.7,367.7,337.3,367.7,300z"/>
	</defs>
	<clipPath id="SVGID_2_">
		<use xlink:href="#SVGID_1_"  style="overflow:visible;"/>
	</clipPath>
	<g class="st0">
		<defs>
			<rect id="SVGID_3_" x="-29600" y="-500" width="32000" height="1600"/>
		</defs>
		<clipPath id="SVGID_4_">
			<use xlink:href="#SVGID_3_"  style="overflow:visible;"/>
		</clipPath>
		<rect x="-125" y="-125" class="st1" width="850" height="850"/>
	</g>
</g>
</svg>
