<?xml version="1.0" encoding="utf-8"?>
<!-- Generator: Adobe Illustrator 20.1.0, SVG Export Plug-In . SVG Version: 6.00 Build 0)  -->
<svg version="1.1" id="Layer_1" xmlns="http://www.w3.org/2000/svg" xmlns:xlink="http://www.w3.org/1999/xlink" x="0px" y="0px"
	 viewBox="0 0 600 600" style="enable-background:new 0 0 600 600;" xml:space="preserve">
<style type="text/css">
	.st0{clip-path:url(#SVGID_2_);}
	.st1{clip-path:url(#SVGID_4_);}
</style>
<g>
	<defs>
		<path id="SVGID_1_" d="M227.6,459c0,0.2,0,0.4,0,0.5c-0.1-0.1-0.3-0.1-0.5-0.2l-101.7-50.9c-1.4-0.7-3-3.2-3-4.8l0-233.1
			l105.2,52.6V459z M240.4,348V241.8l94.4,153.3L240.4,348z M282.5,285.7l72.3-117l106.1,53.1l-108.9,177L282.5,285.7z M463.7,458.9
			c0,0.2,0,0.4,0,0.5c-0.1-0.1-0.3-0.1-0.5-0.2l-101.9-51l102.5-166.5V458.9z M300,0C134.3,0,0,134.3,0,300
			c0,165.7,134.3,300,300,300c165.7,0,300-134.3,300-300C600,134.3,465.7,0,300,0z"/>
	</defs>
	<clipPath id="SVGID_2_">
		<use xlink:href="#SVGID_1_"  style="overflow:visible;"/>
	</clipPath>
	<g class="st0">
		<defs>
			<rect id="SVGID_3_" x="-30300" y="-500" width="32000" height="1600"/>
		</defs>
		<clipPath id="SVGID_4_">
			<use xlink:href="#SVGID_3_"  style="overflow:visible;"/>
		</clipPath>
		<rect x="-125" y="-125" class="st1" width="850" height="850"/>
	</g>
</g>
</svg>
