<svg id="Layer_1" data-name="Layer 1" xmlns="http://www.w3.org/2000/svg" xmlns:xlink="http://www.w3.org/1999/xlink" viewBox="0 0 725 725"><defs><style>.cls-1,.cls-2{fill:none;}.cls-1{clip-rule:evenodd;}.cls-3{clip-path:url(#clip-path);}.cls-4{clip-path:url(#clip-path-2);}</style><clipPath id="clip-path" transform="translate(62.5 62.5)"><path class="cls-1" d="M380.84,588.89c-1.92-87.73-58.78-165.83-141.31-195.26A162.35,162.35,0,0,1,94,518a299.67,299.67,0,0,0,286.84,70.91ZM355.46,384.64a240.22,240.22,0,0,1,55.61,41.55A236,236,0,0,1,475.26,543.4a301.42,301.42,0,0,0,38.21-32.68,213.62,213.62,0,0,0-45.2-66.9A211.16,211.16,0,0,0,355.46,384.64ZM600,300A299.11,299.11,0,0,0,503.59,79.72,219.78,219.78,0,0,1,454.25,155,221.52,221.52,0,0,1,401,194.34H560.16L555,210.56a247.13,247.13,0,0,1-87,122.36,243,243,0,0,1-71.08,36.91A239.25,239.25,0,0,1,531.7,490.55,298.67,298.67,0,0,0,600,300ZM71,493.66H81.69c75.65,0,137.2-61.55,137.2-137.2V265.23A81,81,0,0,1,81.69,206.8V194.34H198.93A221.75,221.75,0,0,1,145.66,155,219.36,219.36,0,0,1,96.34,79.79,299.8,299.8,0,0,0,71,493.66Zm91.8-230.74a56.21,56.21,0,0,0,54.72-43.65H108A56.23,56.23,0,0,0,162.76,262.92ZM300,0a302.69,302.69,0,0,0-46.09,3.52,218.29,218.29,0,0,1-57.34,99.91,223.12,223.12,0,0,1-37.13,29.93c1.26,1.34,2.54,2.66,3.85,4,36.76,36.76,85.3,57,136.65,57s99.9-20.25,136.65-57c1.31-1.3,2.59-2.63,3.86-4a222.62,222.62,0,0,1-37.13-29.93A218.11,218.11,0,0,1,346,3.5,303.07,303.07,0,0,0,300,0ZM456.56,114A192.19,192.19,0,0,0,483.2,62.51,298.58,298.58,0,0,0,373.64,9.14,193.89,193.89,0,0,0,421,85.8,198.09,198.09,0,0,0,456.56,114ZM116.72,62.58A192.32,192.32,0,0,0,143.34,114a197.29,197.29,0,0,0,35.6-28.24A194,194,0,0,0,226.26,9.16,298.69,298.69,0,0,0,116.72,62.58ZM405.45,580.89a299.74,299.74,0,0,0,47.26-22.67A213.46,213.46,0,0,0,280.46,384.6C352.61,423.43,401,497.85,405.45,580.89Zm120-361.61H243.82V341.41A215.92,215.92,0,0,0,453.05,313,222.63,222.63,0,0,0,525.4,219.27Zm-224,63.14A19.48,19.48,0,1,1,321,262.92a19.51,19.51,0,0,1-19.5,19.49"/></clipPath><clipPath id="clip-path-2" transform="translate(62.5 62.5)"><rect class="cls-2" x="-900" y="-100" width="16000" height="800"/></clipPath></defs><title>pleyers_logos</title><g class="cls-3"><g class="cls-4"><rect width="725" height="725"/></g></g></svg>