<?xml version="1.0" encoding="utf-8"?>
<!-- Generator: Adobe Illustrator 20.1.0, SVG Export Plug-In . SVG Version: 6.00 Build 0)  -->
<svg version="1.1" id="Layer_1" xmlns="http://www.w3.org/2000/svg" xmlns:xlink="http://www.w3.org/1999/xlink" x="0px" y="0px"
	 viewBox="0 0 600 600" style="enable-background:new 0 0 600 600;" xml:space="preserve">
<style type="text/css">
	.st0{clip-path:url(#SVGID_2_);}
	.st1{clip-path:url(#SVGID_4_);}
</style>
<g>
	<defs>
		<path id="SVGID_1_" d="M264,348.5l97.1-48.5L264,251.5V348.5z M481.3,364.8c0,35.7-29,64.7-64.7,64.7H183.5
			c-35.8,0-64.7-29-64.7-64.7V235.2c0-35.8,29-64.7,64.7-64.7h233.1c35.8,0,64.7,29,64.7,64.7V364.8z M300,0C134.3,0,0,134.4,0,300
			c0,165.7,134.3,300,300,300s300-134.3,300-300C600,134.4,465.7,0,300,0z"/>
	</defs>
	<clipPath id="SVGID_2_">
		<use xlink:href="#SVGID_1_"  style="overflow:visible;"/>
	</clipPath>
	<g class="st0">
		<defs>
			<rect id="SVGID_3_" x="-31000" y="-500" width="32000" height="1600"/>
		</defs>
		<clipPath id="SVGID_4_">
			<use xlink:href="#SVGID_3_"  style="overflow:visible;"/>
		</clipPath>
		<rect x="-125" y="-125" class="st1" width="850" height="850"/>
	</g>
</g>
</svg>
