<?xml version="1.0" encoding="utf-8"?>
<!-- Generator: Adobe Illustrator 20.1.0, SVG Export Plug-In . SVG Version: 6.00 Build 0)  -->
<svg version="1.1" id="Layer_1" xmlns="http://www.w3.org/2000/svg" xmlns:xlink="http://www.w3.org/1999/xlink" x="0px" y="0px"
	 viewBox="0 0 300 300" style="enable-background:new 0 0 300 300;" xml:space="preserve">
<style type="text/css">
	.st0{clip-path:url(#SVGID_2_);}
	.st1{clip-path:url(#SVGID_4_);fill:#0254A6;}
</style>
<g>
	<defs>
		<path id="SVGID_1_" d="M189.7,149.4h-26V242h-38.5v-92.6h-18.3v-32.7h18.3V95.5c0-15.2,7.2-38.8,38.9-38.8l28.5,0.1v31.8h-20.7
			c-3.4,0-8.2,1.7-8.2,8.9v19.3h29.3L189.7,149.4z M150,0C67.2,0,0,67.2,0,150c0,82.8,67.2,150,150,150s150-67.1,150-150
			C300,67.2,232.8,0,150,0z"/>
	</defs>
	<clipPath id="SVGID_2_">
		<use xlink:href="#SVGID_1_"  style="overflow:visible;"/>
	</clipPath>
	<g class="st0">
		<defs>
			<rect id="SVGID_3_" x="0" width="1050.1" height="300"/>
		</defs>
		<clipPath id="SVGID_4_">
			<use xlink:href="#SVGID_3_"  style="overflow:visible;"/>
		</clipPath>
		<rect x="-46.9" y="-46.9" class="st1" width="393.8" height="393.8"/>
	</g>
</g>
</svg>
