<?xml version="1.0" encoding="utf-8"?>
<!-- Generator: Adobe Illustrator 20.1.0, SVG Export Plug-In . SVG Version: 6.00 Build 0)  -->
<svg version="1.1" id="Layer_1" xmlns="http://www.w3.org/2000/svg" xmlns:xlink="http://www.w3.org/1999/xlink" x="0px" y="0px"
	 viewBox="0 0 300 300" style="enable-background:new 0 0 300 300;" xml:space="preserve">
<style type="text/css">
	.st0{fill-rule:evenodd;clip-rule:evenodd;fill:#9D9E9D;}
</style>
<g>
	<path class="st0" d="M2,150c0,81.7,66.3,148,148,148c81.7,0,148-66.3,148-148C298,68.3,231.7,2,150,2C68.3,2,2,68.3,2,150z
		 M159,104h37.2c25.5,0,46.2,20.5,46.2,46c0,25.5-20.7,46-46.2,46H159v-17h37.2c15.8,0,28.7-13.2,28.7-29s-12.9-29-28.7-29H159V104z
		 M187,141v18h-74v-18H187z M103.8,104H141v17h-37.2c-15.8,0-28.7,13.2-28.7,29s12.9,29,28.7,29H141v17h-37.2
		c-25.5,0-46.2-20.5-46.2-46C57.5,124.5,78.2,104,103.8,104z"/>
</g>
</svg>
