<?xml version="1.0" encoding="utf-8"?>
<!-- Generator: Adobe Illustrator 20.1.0, SVG Export Plug-In . SVG Version: 6.00 Build 0)  -->
<svg version="1.1" id="Layer_1" xmlns="http://www.w3.org/2000/svg" xmlns:xlink="http://www.w3.org/1999/xlink" x="0px" y="0px"
	 viewBox="0 0 600 600" style="enable-background:new 0 0 600 600;" xml:space="preserve">
<style type="text/css">
	.st0{fill-rule:evenodd;clip-rule:evenodd;fill:none;}
</style>
<path class="st0" d="M380.8,588.9c-1.9-87.7-58.8-165.8-141.3-195.3C223.6,461.3,165.1,512.6,94,518c53.7,50.8,126.2,82,206,82
	C328,600,355.1,596.1,380.8,588.9z M355.5,384.6c20.2,10.9,38.9,24.8,55.6,41.5c32.8,32.8,54.7,73.3,64.2,117.2
	c13.6-9.8,26.4-20.8,38.2-32.7c-10.6-24.6-25.6-47.3-45.2-66.9C436.9,412.5,397.8,392.1,355.5,384.6z M600,300
	c0-87.1-37.1-165.5-96.4-220.3c-10.9,27.8-27.5,53.4-49.3,75.2c-16,16-33.9,29.2-53.3,39.4h159.2l-5.1,16.2
	c-15.2,48.3-46.2,91.7-87,122.4c-21.9,16.4-45.8,28.7-71.1,36.9c33,11.6,63.3,30.7,89,56.4c19.1,19.1,34.4,40.9,45.8,64.4
	C574.4,438.7,600,372.4,600,300z M71,493.7h10.7c75.7,0,137.2-61.6,137.2-137.2v-6.7v-84.5c-14.6,14-34.4,22.7-56.1,22.7
	c-44.7,0-81.1-36.4-81.1-81.1v-12.5h117.2c-19.3-10.2-37.3-23.4-53.3-39.4c-21.9-21.8-38.4-47.4-49.3-75.2C37.1,134.6,0,212.9,0,300
	C0,373.8,26.7,441.4,71,493.7z M162.8,262.9c26.7,0,49-18.7,54.7-43.7H108C113.7,244.3,136.1,262.9,162.8,262.9z M300,0
	c-15.7,0-31.1,1.2-46.1,3.5c-9.7,37.3-29.1,71.7-57.3,99.9c-11.4,11.4-23.9,21.4-37.1,29.9c1.3,1.3,2.5,2.7,3.8,4
	c36.8,36.8,85.3,57,136.7,57c51.4,0,99.9-20.3,136.6-57c1.3-1.3,2.6-2.6,3.9-4c-13.2-8.5-25.7-18.5-37.1-29.9
	C375.1,75.2,355.6,40.9,346,3.5C331,1.2,315.6,0,300,0z M456.6,114c11.6-15.8,20.4-33.2,26.6-51.5c-32-24.7-69.1-43.2-109.6-53.4
	C383,37.6,399,63.8,421,85.8C431.9,96.7,443.8,106.1,456.6,114z M116.7,62.6c6.2,18.3,15,35.6,26.6,51.4
	c12.8-7.9,24.7-17.3,35.6-28.2c22-22,37.9-48.2,47.3-76.6C185.8,19.4,148.7,37.8,116.7,62.6z M405.4,580.9
	c16.5-6.2,32.3-13.8,47.3-22.7c-7.3-42.9-27.6-82.7-59.3-114.4c-31.4-31.4-70.6-51.8-113-59.2C352.6,423.4,401,497.8,405.4,580.9z
	 M525.4,219.3H243.8v122.1c25.3,10,51.9,15.1,79.2,15.1c47.1,0,92.1-15.1,130.1-43.5C485.2,288.9,510.4,256.1,525.4,219.3z
	 M301.4,282.4c-10.7,0-19.5-8.7-19.5-19.5c0-10.7,8.8-19.5,19.5-19.5c10.8,0,19.5,8.7,19.5,19.5C321,273.7,312.2,282.4,301.4,282.4"
	/>
</svg>
