<?xml version="1.0" encoding="utf-8"?>
<!-- Generator: Adobe Illustrator 20.1.0, SVG Export Plug-In . SVG Version: 6.00 Build 0)  -->
<svg version="1.1" id="Layer_1" xmlns="http://www.w3.org/2000/svg" xmlns:xlink="http://www.w3.org/1999/xlink" x="0px" y="0px"
	 viewBox="0 0 300 300" style="enable-background:new 0 0 300 300;" xml:space="preserve">
<style type="text/css">
	.st0{fill-rule:evenodd;clip-rule:evenodd;fill:#ff6a6b;}
</style>
<path class="st0" d="M34.3,111.5c0,42.7,34.5,77.2,77.2,77.2s77.2-34.5,77.2-77.2c0-42.7-34.5-77.2-77.2-77.2S34.3,68.8,34.3,111.5z
	 M274.4,300l-85.7-85.6v-13.5l-4.6-4.8c-19.6,16.8-44.9,26.9-72.6,26.9C49.9,223,0,173.1,0,111.5C0,49.9,49.9,0,111.5,0
	S223,49.9,223,111.5c0,27.6-10.1,53-26.9,72.5l4.8,4.6h13.5l85.6,85.7L274.4,300z"/>
</svg>
