<?xml version="1.0" encoding="utf-8"?>
<!-- Generator: Adobe Illustrator 20.1.0, SVG Export Plug-In . SVG Version: 6.00 Build 0)  -->
<svg version="1.1" id="Layer_1" xmlns="http://www.w3.org/2000/svg" xmlns:xlink="http://www.w3.org/1999/xlink" x="0px" y="0px"
	 viewBox="0 0 600 600" style="enable-background:new 0 0 600 600;" xml:space="preserve">
<style type="text/css">
	.st0{clip-path:url(#SVGID_2_);}
	.st1{clip-path:url(#SVGID_4_);}
</style>
<g>
	<defs>
		<path id="SVGID_1_" d="M448.5,222.9c0.1,3.2,0.2,6.4,0.2,9.6c0,97.7-74.4,210.4-210.4,210.4c-41.7,0-80.6-12.2-113.3-33.2
			c5.8,0.7,11.7,1,17.6,1c34.6,0,66.5-11.8,91.9-31.7c-32.4-0.6-59.7-22-69.1-51.3c4.5,0.9,9.1,1.3,13.9,1.3
			c6.8,0,13.3-0.9,19.5-2.6c-33.8-6.8-59.3-36.7-59.3-72.5V253c10,5.5,21.4,8.9,33.5,9.2c-19.8-13.2-32.9-35.9-32.9-61.5
			c0-13.5,3.6-26.2,10-37.2c36.5,44.7,90.9,74.2,152.4,77.3c-1.3-5.4-1.9-11.1-1.9-16.9c0-40.9,33.1-74,74-74c21.3,0,40.5,9,54,23.4
			c16.8-3.3,32.6-9.5,46.9-18c-5.5,17.3-17.2,31.8-32.5,40.9c15-1.8,29.2-5.8,42.5-11.7C475.4,199.5,462.9,212.5,448.5,222.9z
			 M300,0C134.3,0,0,134.4,0,300c0,165.7,134.3,300,300,300c165.7,0,300-134.3,300-300C600,134.4,465.7,0,300,0z"/>
	</defs>
	<clipPath id="SVGID_2_">
		<use xlink:href="#SVGID_1_"  style="overflow:visible;"/>
	</clipPath>
	<g class="st0">
		<defs>
			<rect id="SVGID_3_" x="-28900" y="-500" width="32000" height="1600"/>
		</defs>
		<clipPath id="SVGID_4_">
			<use xlink:href="#SVGID_3_"  style="overflow:visible;"/>
		</clipPath>
		<rect x="-125" y="-125" class="st1" width="850" height="850"/>
	</g>
</g>
</svg>
