<?xml version="1.0" encoding="utf-8"?>
<!-- Generator: Adobe Illustrator 20.1.0, SVG Export Plug-In . SVG Version: 6.00 Build 0)  -->
<svg version="1.1" xmlns="http://www.w3.org/2000/svg" xmlns:xlink="http://www.w3.org/1999/xlink" x="0px" y="0px"
	 viewBox="0 0 300 300" style="enable-background:new 0 0 300 300;" xml:space="preserve">
<style type="text/css">
	.st0{display:none;}
	.st1{display:inline;fill:#020202;}
	.st2{clip-path:url(#SVGID_4_);}
	.st3{clip-path:url(#SVGID_6_);fill:#FFFFFF;}
</style>
<g id="Layer_2" class="st0">
	<rect class="st1" width="300" height="300"/>
</g>
<g id="Layer_1">
	<g>
		<g>
			<defs>
				<path id="SVGID_1_" d="M147.8,136c0,5.6,4.6,10.2,10.2,10.2c5.6,0,10.2-4.5,10.2-10.2c0-5.6-4.6-10.1-10.2-10.1
					C152.4,125.8,147.8,130.4,147.8,136"/>
			</defs>
			<use xlink:href="#SVGID_1_"  style="overflow:visible;fill:#FFFFFF;"/>
			<clipPath id="SVGID_2_">
				<use xlink:href="#SVGID_1_"  style="overflow:visible;"/>
			</clipPath>
		</g>
		<g>
			<defs>
				<path id="SVGID_3_" d="M64.3,113.9h57c-3,13-14.6,22.8-28.5,22.8C79,136.7,67.3,127,64.3,113.9 M135.1,177.6v-63.7h146.8
					c-7.8,19.2-21,36.3-37.7,48.8c-19.8,14.8-43.3,22.7-67.8,22.7C162.2,185.5,148.3,182.8,135.1,177.6 M265.3,0
					c0,21.4-6.8,41.9-19.3,59.1c-6.6-4.1-12.9-9-18.6-14.7C214.9,31.8,206,16.6,201.4,0h-13.4c4.9,20,15.2,38.5,30.3,53.6
					c6,6,12.4,11.2,19.3,15.6c-0.7,0.7-1.3,1.4-2,2.1c-19.2,19.2-44.5,29.7-71.2,29.7c-26.8,0-52.1-10.6-71.2-29.7
					c-0.7-0.7-1.3-1.4-2-2.1c6.9-4.4,13.4-9.6,19.3-15.6C125.6,38.5,135.9,20,140.8,0h-13.4c-4.6,16.6-13.5,31.8-26.1,44.4
					C95.6,50.1,89.4,55,82.7,59.1C70.2,41.9,63.4,21.4,63.4,0h-13c0,30.2,11.9,58.8,33.5,80.4c8.3,8.3,17.7,15.2,27.8,20.5H50.6v6.5
					c0,23.3,18.9,42.3,42.3,42.3c11.3,0,21.7-4.5,29.2-11.8v44v3.5c0,39.4-32.1,71.5-71.5,71.5H0v13h50.6
					c39.9,0,73.5-27.8,82.3-65.1c40.9,14.6,69.8,52.2,73.4,95.2h13c-3.1-42.3-28.2-80-65.1-99.9c22.1,3.9,42.5,14.5,58.9,30.9
					c18.8,18.8,30,43.1,32.1,69h13c-2.1-29.4-14.6-56.9-35.9-78.2c-8.7-8.7-18.5-16-29-21.7c22.1,3.9,42.5,14.5,58.8,30.9
					c18.8,18.8,30,43.1,32.1,69h13c-2.1-29.4-14.6-56.9-35.9-78.2c-13.4-13.4-29.2-23.3-46.4-29.4c13.2-4.2,25.6-10.7,37-19.2
					c21.3-16,37.4-38.6,45.4-63.8l2.7-8.5h-83c10.1-5.3,19.4-12.2,27.8-20.5c21.6-21.6,33.5-50.2,33.5-80.4H265.3z"/>
			</defs>
			<clipPath id="SVGID_4_">
				<use xlink:href="#SVGID_3_"  style="overflow:visible;"/>
			</clipPath>
			<g class="st2">
				<defs>
					<rect id="SVGID_5_" x="-9093.8" y="-8025" width="12000" height="40275"/>
				</defs>
				<clipPath id="SVGID_6_">
					<use xlink:href="#SVGID_5_"  style="overflow:visible;"/>
				</clipPath>
				<rect x="-46.9" y="-46.9" class="st3" width="393.8" height="393.8"/>
			</g>
		</g>
	</g>
</g>
<g id="Layer_3" class="st0">
</g>
</svg>
