<?xml version="1.0" encoding="utf-8"?>
<!-- Generator: Adobe Illustrator 16.0.0, SVG Export Plug-In . SVG Version: 6.00 Build 0)  -->
<!DOCTYPE svg PUBLIC "-//W3C//DTD SVG 1.1//EN" "http://www.w3.org/Graphics/SVG/1.1/DTD/svg11.dtd">
<svg version="1.1" id="Layer_1" xmlns="http://www.w3.org/2000/svg" xmlns:xlink="http://www.w3.org/1999/xlink" x="0px" y="0px"
	 width="472.667px" height="100px" viewBox="0 0 472.667 100" enable-background="new 0 0 472.667 100" xml:space="preserve">
<g>
	<g>
		<defs>
			<path id="SVGID_1_" d="M266.333,10.5l0.982,2.889l3.018,0.053l-2.412,1.836l0.885,2.921l-2.473-1.754l-2.471,1.754l0.885-2.921
				l-2.414-1.836l3.02-0.053L266.333,10.5z M283.333,10.5l0.982,3.003l3.018,0.053l-2.412,1.909l0.885,3.035l-2.473-1.823
				l-2.473,1.823l0.887-3.035l-2.414-1.909l3.02-0.053L283.333,10.5z M189.333,10.5l0.98,3.003l3.02,0.053l-2.413,1.909l0.886,3.035
				l-2.473-1.823l-2.473,1.823l0.886-3.035l-2.413-1.909l3.019-0.053L189.333,10.5z M206.333,10.5l0.98,2.889l3.02,0.053
				l-2.413,1.836l0.885,2.921l-2.472-1.754l-2.473,1.754l0.886-2.921l-2.413-1.836l3.019-0.053L206.333,10.5z"/>
		</defs>
		<clipPath id="SVGID_2_">
			<use xlink:href="#SVGID_1_"  overflow="visible"/>
		</clipPath>
		<rect x="180.333" y="5.5" clip-path="url(#SVGID_2_)" width="112" height="18"/>
	</g>
	<g>
		<defs>
			<path id="SVGID_3_" d="M251.8,5.233l-3.834,5.274c-1.33,1.831-4.008,1.859-5.375,0.057c0,0-5.282-7.612-5.282-7.613l-0.006-0.008
				l0,0c-0.182-0.268-0.484-0.443-0.828-0.443c-0.342,0-0.645,0.176-0.827,0.443l-0.005,0.008c-0.002,0.001-5.282,7.613-5.282,7.613
				c-1.366,1.803-4.044,1.774-5.375-0.057l-3.835-5.274c-0.617-0.852-1.943-0.308-1.809,0.744l2.574,13.974
				c0.064,0.512,0.492,0.895,0.998,0.895h27.124c0.506,0,0.934-0.383,0.998-0.895l2.574-13.974
				C253.744,4.926,252.419,4.382,251.8,5.233z M249.58,23.418h-26.206c-0.836,0-1.513,0.69-1.513,1.541
				c0,0.852,0.677,1.541,1.513,1.541h26.206c0.834,0,1.512-0.689,1.512-1.541C251.091,24.108,250.414,23.418,249.58,23.418z"/>
		</defs>
		<clipPath id="SVGID_4_">
			<use xlink:href="#SVGID_3_"  overflow="visible"/>
		</clipPath>
		<rect x="214.333" y="-2.5" clip-path="url(#SVGID_4_)" width="44.288" height="34"/>
	</g>
	<g>
		<defs>
			<polygon id="SVGID_5_" points="100.333,49.5 6.333,49.5 22.333,73.5 6.333,97.5 100.333,97.5 			"/>
		</defs>
		<clipPath id="SVGID_6_">
			<use xlink:href="#SVGID_5_"  overflow="visible"/>
		</clipPath>
		<rect x="1.333" y="44.5" clip-path="url(#SVGID_6_)" fill="#BF4138" width="104" height="58"/>
	</g>
	<g>
		<defs>
			<polygon id="SVGID_7_" points="372.333,49.5 466.333,49.5 450.333,73.5 466.333,97.5 372.333,97.5 			"/>
		</defs>
		<clipPath id="SVGID_8_">
			<use xlink:href="#SVGID_7_"  overflow="visible"/>
		</clipPath>
		<rect x="367.333" y="44.5" clip-path="url(#SVGID_8_)" fill="#BF4138" width="104" height="58"/>
	</g>
	<g>
		<defs>
			<polygon id="SVGID_9_" points="100.333,97.5 100.333,49.5 52.333,33.5 52.333,81.5 			"/>
		</defs>
		<clipPath id="SVGID_10_">
			<use xlink:href="#SVGID_9_"  overflow="visible"/>
		</clipPath>
		<rect x="47.333" y="28.5" clip-path="url(#SVGID_10_)" fill="#862119" width="58" height="74"/>
	</g>
	<g>
		<defs>
			<polygon id="SVGID_11_" points="372.333,97.5 372.333,49.5 420.333,33.5 420.333,81.5 			"/>
		</defs>
		<clipPath id="SVGID_12_">
			<use xlink:href="#SVGID_11_"  overflow="visible"/>
		</clipPath>
		<rect x="367.333" y="28.5" clip-path="url(#SVGID_12_)" fill="#862119" width="58" height="74"/>
	</g>
	<g>
		<defs>
			<rect id="SVGID_13_" x="52.333" y="33.5" width="368" height="48"/>
		</defs>
		<clipPath id="SVGID_14_">
			<use xlink:href="#SVGID_13_"  overflow="visible"/>
		</clipPath>
		<rect x="47.333" y="28.5" clip-path="url(#SVGID_14_)" fill="#FF574A" width="378" height="58"/>
	</g>
	<g>
		<defs>
			<path id="SVGID_15_" d="M360.771,57.17l-5.262-1.934c-1.096-0.424-1.551-1.059-1.551-1.904v-0.363
				c0-1.059,0.789-1.602,2.25-1.602h7.391c0.428,0,0.609-0.152,0.609-0.605v-2.931c0-0.333-0.152-0.484-0.609-0.636
				c-2.279-0.484-4.014-0.694-6.539-0.694c-5.932,0-8.791,1.632-8.791,6.046v0.664c0,4.111,1.4,5.713,3.984,6.621l5.264,1.902
				c1.459,0.514,2.129,0.969,2.129,2.117v0.303c0,1.025-0.76,1.479-2.158,1.479h-8.793c-0.455,0-0.639,0.182-0.639,0.635v2.723
				c0,0.451,0.152,0.664,0.578,0.754c3.012,0.545,5.414,0.756,7.574,0.756c5.75,0,9.125-1.662,9.125-6.074v-0.787
				C365.333,59.559,363.753,58.289,360.771,57.17z M330.843,57.744h-3.133v-6.377h3.133c2.92,0,3.711,0.787,3.711,3.264
				C334.554,57.141,333.763,57.744,330.843,57.744z M335.771,61.553c3.316-0.725,4.502-2.66,4.502-7.102
				c0-5.956-2.252-7.95-8.822-7.95c-2.891,0-5.932,0.121-8.912,0.362c-0.365,0.031-0.455,0.121-0.455,0.424v22.578
				c0,0.393,0.09,0.484,0.455,0.484h4.715c0.365,0,0.457-0.092,0.457-0.484v-7.949h1.947l4.957,7.768
				c0.305,0.453,0.518,0.666,1.217,0.666h4.746c0.457,0,0.607-0.271,0.365-0.605L335.771,61.553z M312.96,46.682h-15.756
				c-0.303,0-0.455,0.182-0.455,0.484v22.699c0,0.334,0.152,0.484,0.455,0.484h15.756c0.305,0,0.488-0.15,0.488-0.453v-3.961
				c0-0.303-0.184-0.453-0.488-0.453h-10.584v-4.564h9.703c0.305,0,0.488-0.15,0.488-0.453v-3.748c0-0.301-0.184-0.453-0.488-0.453
				h-9.703v-4.716h10.584c0.305,0,0.488-0.15,0.488-0.453v-3.96C313.449,46.833,313.265,46.682,312.96,46.682z M289.117,46.682
				h-5.262c-0.457,0-0.67,0.151-0.822,0.484l-4.836,9.914l-4.807-9.914c-0.242-0.333-0.363-0.484-0.82-0.484h-5.293
				c-0.428,0-0.607,0.182-0.334,0.665l8.426,15.144v7.346c0,0.363,0.15,0.514,0.455,0.514h4.717c0.303,0,0.455-0.15,0.455-0.514
				v-7.285l8.457-15.204C289.726,46.863,289.542,46.682,289.117,46.682z M259.798,46.682h-15.756c-0.305,0-0.457,0.182-0.457,0.484
				v22.699c0,0.334,0.152,0.484,0.457,0.484h15.756c0.305,0,0.488-0.15,0.488-0.453v-3.961c0-0.303-0.184-0.453-0.488-0.453h-10.584
				v-4.564h9.703c0.303,0,0.486-0.15,0.486-0.453v-3.748c0-0.301-0.184-0.453-0.486-0.453h-9.703v-4.716h10.584
				c0.305,0,0.488-0.15,0.488-0.453v-3.96C260.287,46.833,260.103,46.682,259.798,46.682z M235.345,65.482h-9.46V47.166
				c0-0.303-0.152-0.484-0.456-0.484h-4.716c-0.303,0-0.455,0.182-0.455,0.484v22.699c0,0.334,0.152,0.484,0.455,0.484h14.632
				c0.305,0,0.456-0.15,0.456-0.453v-3.961C235.801,65.633,235.65,65.482,235.345,65.482z M202.771,57.744h-3.133v-6.377h3.133
				c2.92,0,3.711,0.787,3.711,3.264C206.482,57.141,205.691,57.744,202.771,57.744z M203.38,46.501c-2.89,0-5.932,0.121-8.913,0.362
				c-0.364,0.031-0.457,0.121-0.457,0.424v22.578c0,0.393,0.093,0.484,0.457,0.484h4.715c0.365,0,0.456-0.092,0.456-0.484v-7.949
				h3.742c6.57,0,8.821-1.451,8.821-7.465C212.202,48.495,209.951,46.501,203.38,46.501z M170.078,57.17l-5.262-1.934
				c-1.096-0.424-1.552-1.059-1.552-1.904v-0.363c0-1.059,0.791-1.602,2.251-1.602h7.393c0.425,0,0.607-0.152,0.607-0.605v-2.931
				c0-0.333-0.151-0.484-0.607-0.636c-2.282-0.484-4.017-0.694-6.54-0.694c-5.933,0-8.791,1.632-8.791,6.046v0.664
				c0,4.111,1.398,5.713,3.983,6.621l5.264,1.902c1.46,0.514,2.129,0.969,2.129,2.117v0.303c0,1.025-0.761,1.479-2.159,1.479h-8.791
				c-0.457,0-0.639,0.182-0.639,0.635v2.723c0,0.451,0.151,0.664,0.577,0.754c3.012,0.545,5.414,0.756,7.574,0.756
				c5.749,0,9.125-1.662,9.125-6.074v-0.787C174.64,59.559,173.059,58.289,170.078,57.17z M139.512,65.633
				c-3.65,0-4.441-1.752-4.441-7.102c0-5.412,0.791-7.164,4.441-7.164c3.681,0,4.441,1.752,4.441,7.164
				C143.954,63.881,143.193,65.633,139.512,65.633z M139.512,46.5c-7.908,0-10.129,2.751-10.129,12.031
				c0,9.219,2.221,11.969,10.129,11.969c7.909,0,10.16-2.75,10.16-11.969C149.672,49.251,147.421,46.5,139.512,46.5z M122.42,65.482
				h-9.459V47.166c0-0.303-0.153-0.484-0.457-0.484h-4.714c-0.306,0-0.457,0.182-0.457,0.484v22.699
				c0,0.334,0.151,0.484,0.457,0.484h14.63c0.305,0,0.457-0.15,0.457-0.453v-3.961C122.877,65.633,122.725,65.482,122.42,65.482z"/>
		</defs>
		<clipPath id="SVGID_16_">
			<use xlink:href="#SVGID_15_"  overflow="visible"/>
		</clipPath>
		<rect x="102.333" y="41.5" clip-path="url(#SVGID_16_)" width="268" height="34"/>
	</g>
</g>
</svg>
